<svg xmlns="http://www.w3.org/2000/svg" viewBox="0 0 83.01 55.88"><defs><style>.cls-1,.cls-2{fill:none;}.cls-1{stroke:#fff;stroke-miterlimit:10;stroke-width:0.25px;}</style></defs><title>PdPHandshake</title><g id="Layer_2" data-name="Layer 2"><g id="Layer_1-2" data-name="Layer 1"><path class="cls-1" d="M43.46,52.25a2,2,0,0,0,2,.22,4.07,4.07,0,0,0,1.67-1.35"/><path class="cls-1" d="M45.79,47.1c.06-.11.2,0,.29,0,.67.7,1.81,1.61,1.44,2.56a4.07,4.07,0,0,1-2,2.23,2.88,2.88,0,0,1-2.73-.13"/><path class="cls-2" d="M20,4.3a5.16,5.16,0,0,0-2.15-1.81,16.1,16.1,0,0,1-2.45-1.33A5.26,5.26,0,0,0,14.3.39c-1-.42-1.42.6-1.83,1.43C11.9,3,11.3,4.14,10.71,5.3,9.56,7.56,8.39,9.81,7.22,12.05Q3.68,18.78,0,25.4c.11.36.5.63.77.85A40.42,40.42,0,0,0,6.24,30l-.13-.21c.68-.1,1.07-.65,1.42-1.32l10.81-21c.41-.79.83-1.59,1.22-2.4C19.71,4.79,19.89,4.62,20,4.3Z"/><path d="M34.31,43.82a6,6,0,0,1,3.56,1.63A4.86,4.86,0,0,1,39.6,49a7.31,7.31,0,0,1-1.36,3.9l.06.1a.7.7,0,0,0,.5.5,33,33,0,0,0,4.87,1.21,11.49,11.49,0,0,0,1.65.23,6.46,6.46,0,0,0,4.9-2.67c.06-.06,0-.17.08-.24-2.71-1.48-5.53-2.91-8.31-4.22a1.06,1.06,0,0,1-.43-1,.86.86,0,0,1,.72-.49,2,2,0,0,1,.86.16l.17.07c2.18,1.05,4,2,6.2,3.07a10.15,10.15,0,0,0,2.22,1,4.93,4.93,0,0,0,2,.14,3.05,3.05,0,0,0,2-1.16,3.26,3.26,0,0,0,.4-1A4.09,4.09,0,0,0,56.31,47a2.71,2.71,0,0,0-.6-.44c-.32-.15-.63-.34-.94-.51-1.79-1-3.5-2.24-5.27-3.28l-.93-.56c-.63-.37-1.27-.75-1.9-1.14-.39-.25-1.27-.68-1.31-1.28a.75.75,0,0,1,.33-.59,1.3,1.3,0,0,1,.75-.27,2.66,2.66,0,0,1,1.48.58c.65.42,4.66,2.92,6,3.75s2.45,1.81,3.94,2.12a4.6,4.6,0,0,0,1.11.11c.11,0,.64,0,.75-.06a1.69,1.69,0,0,0,.46-.2,2,2,0,0,0,.73-.62,6.51,6.51,0,0,0,.81-1.43,2.32,2.32,0,0,0,0-1.66c-.12-.3-11-7.56-12.09-8.5a2,2,0,0,1-.42-.46c-.15-.44,0-1,.44-1.13a.89.89,0,0,1,.5.1c1.49.63,12.31,7.93,12.71,8.16a5.85,5.85,0,0,0,1,.56,3.32,3.32,0,0,0,.92.21,2,2,0,0,0,1-.35,5.38,5.38,0,0,0,1.85-2.05,2.42,2.42,0,0,0,.07-1.9A8.12,8.12,0,0,0,65.83,34a47.09,47.09,0,0,0-4.95-3.87c-1.39-1-2.47-1.75-4.11-3.06C54.11,24.92,55.45,26,51.35,23a51.36,51.36,0,0,0-5.42-3.65c-.85-.49-2.23-1.4-3.09-1.87A15.54,15.54,0,0,0,40.6,16.2a21,21,0,0,0-2.46.52,2.55,2.55,0,0,0-1,.58c-.3.34-.57.74-.77,1a37.61,37.61,0,0,1-3.5,3.83,5.61,5.61,0,0,1-.8.58,5,5,0,0,1-.83.49L30,23.66A7.31,7.31,0,0,1,29,24a6.44,6.44,0,0,1-1.06.15,5.76,5.76,0,0,1-3-.39,2.84,2.84,0,0,1-1.61-2.61,4,4,0,0,1,.25-1.07,25.24,25.24,0,0,1,2.18-4.19c.16-.3.32-.59.5-.87s.51-.78.77-1.17c.54-.79,1.05-1.61,1.52-2.44-2.87-.6-5.91-1.23-8.42-2.89a34.75,34.75,0,0,1-2,4.29c-.88,1.72-1.8,3.41-2.73,5.09-1,1.84-2,3.66-3.07,5.49S9.55,28.5,9.57,28.32l3.53,4.74a4.19,4.19,0,0,1,.8-1,4.13,4.13,0,0,1,2.71-.73,3.67,3.67,0,0,1,3,1.21,4.19,4.19,0,0,1,.59,1l.1.24a.85.85,0,0,1,.08.24c0,.09.07.19.11.28a4.56,4.56,0,0,0,.31.55s.16.22.19.23c1.06-1.48,1.69-3,3.2-3.23a4.37,4.37,0,0,1,4,1.95l.3.44c.09.15.17.3.25.45a4,4,0,0,1,.21.47,3.8,3.8,0,0,1,.18.47c0,.16.09.32.13.48a4.37,4.37,0,0,1,.09.5c0,.17,0,.35.06.52s0,.35,0,.53a2.62,2.62,0,0,1,0,.28v.21a.06.06,0,0,0,0,.07.53.53,0,0,0,.18,0l.14,0h.09a4.55,4.55,0,0,1,2.59.89,5.88,5.88,0,0,1,1.16,1.45A4.74,4.74,0,0,1,34.06,42"/><path d="M13.69,0l3.44,2.5a9.68,9.68,0,0,0,1.6,1A2.73,2.73,0,0,1,20,4.37c-.06,0-.91,2.09-1.46,3.14C14.76,14.63,6.73,29.88,6.69,29.86s-.05,0-.09-.06C4.58,28.2,2,27.61.17,25.71,1.52,21.63,4.11,18.25,6,14.42c.45-.93.86-1.88,1.28-2.82A80.74,80.74,0,0,1,13.69,0Z"/><path d="M16,41.22a28.33,28.33,0,0,0,3-3.94,3.28,3.28,0,0,0,0-2.37,2.3,2.3,0,0,0-1.29-1.54,3.37,3.37,0,0,0-2.68-.18,7.76,7.76,0,0,0-1,1.19,16.89,16.89,0,0,0-1.82,3c-.47.91.23,2,.92,2.74a6,6,0,0,0,1.13.82,2.49,2.49,0,0,0,.91.41A1.24,1.24,0,0,0,16,41.22Z"/><path d="M21.75,46.64c.2-.24,4.49-6.47,5.16-7.3a6.35,6.35,0,0,0,.73-1.22,2.07,2.07,0,0,0,.18-.77A3.7,3.7,0,0,0,27,35.21,2.81,2.81,0,0,0,24.4,34c-.89.18-1.29,1.14-1.83,1.9l-1.78,2.51-3.51,4.94c-.4.56-.24,1.11-.05,1.79A3.35,3.35,0,0,0,19,47.23a2.46,2.46,0,0,0,1.73.12,2.57,2.57,0,0,0,.52-.21l.24-.16a.87.87,0,0,0,.19-.23l.05-.06Z"/><path d="M37.71,50.27A25.39,25.39,0,0,1,36,53.14L34.65,55c-1.11,1.51-3,.91-4-.45A3.18,3.18,0,0,1,30,51.84a16.24,16.24,0,0,1,1.7-2.76c.71-1.08,1.47-2.79,2.76-2.91A3,3,0,0,1,36,46.3a3.27,3.27,0,0,1,1.38,1.15,4.3,4.3,0,0,1,.44,1.45,3.63,3.63,0,0,1,0,1.12"/><path d="M62.55,8.51c-4.74.87-9.47-1-14.26-1.35A37.73,37.73,0,0,0,34.08,8.49a6.35,6.35,0,0,0-2.81,2.13q-2.73,3.92-5.11,8.11a3.64,3.64,0,0,0-.66,2.51,1.37,1.37,0,0,0,1.7,1.26,4.73,4.73,0,0,0,1.15-.29l1-.35c.14,0,1.25-.64,1.58-.82s.58-.35.86-.54a13.32,13.32,0,0,0,1.55-1.28,14.57,14.57,0,0,0,2.5-3.3,32,32,0,0,1,4.53-1.49.89.89,0,0,1,.47,0,23.75,23.75,0,0,0,3.64,2.19,75.07,75.07,0,0,1,10.27,6.22c2.67,1.88,5.06,4.17,7.7,6.1a29.83,29.83,0,0,1,2.57,2.22c.87.8,1.33,1.59,2.57,1.34a1.88,1.88,0,0,0,.46-.14,13.55,13.55,0,0,0,2.67-1.67,9.58,9.58,0,0,0,2.18-2.44.49.49,0,0,0,0-.53"/><path d="M72.11,21.9c1.17,2.14,2.47,5,3.7,7.15a6.56,6.56,0,0,0,.66,1,5.9,5.9,0,0,0,1-.42c.39-.21.76-.44,1.13-.68C80.06,28,81.6,26.91,83,26q-2.34-5.11-5-10c-.85-1.52-1.55-3.16-2.36-4.72-.41-.8-.82-1.56-1.28-2.36a14,14,0,0,0-1.07-1.71s-.69-1.29-.72-1.33c-1.2-2.1-.87-1.51-2.13-3.57-.13-.22-1-1.87-1.16-2.07A30.92,30.92,0,0,0,63,4.39"/><path d="M27.21,51.8c.18-.23,3.95-5.79,4.55-6.58a8.14,8.14,0,0,0,.8-1.4,2,2,0,0,0,.11-.88c-.19-1.25-.25-1.57-1-2.25a5.77,5.77,0,0,0-1.19-.6,3.15,3.15,0,0,0-1.78.12,7.28,7.28,0,0,0-.93,1.07c-.53.8-1.2,1.65-1.74,2.45C25,45.3,24,46.48,23,48.05a3.26,3.26,0,0,0,.1,2.41,3.1,3.1,0,0,0,1.43,1.59,2.55,2.55,0,0,0,1.79.43,2.11,2.11,0,0,0,.46-.21l.21-.14a1.14,1.14,0,0,0,.22-.28Z"/></g></g></svg>