<svg xmlns="http://www.w3.org/2000/svg" viewBox="0 0 145.73 96.73"><defs><style>.cls-1,.cls-6{font-size:29.69px;}.cls-1{fill:#007a02;stroke:#007a02;}.cls-1,.cls-10,.cls-14,.cls-16,.cls-6,.cls-8{stroke-miterlimit:10;}.cls-1,.cls-10,.cls-14,.cls-6{font-family:PTSans-NarrowBold, PT Sans Narrow;font-weight:700;}.cls-2,.cls-3,.cls-4,.cls-5,.cls-7{font-size:26px;}.cls-2{letter-spacing:-0.03em;}.cls-4{letter-spacing:-0.11em;}.cls-5{letter-spacing:-0.02em;}.cls-6{fill:#e20026;stroke:#e20026;}.cls-7{letter-spacing:-0.04em;}.cls-16,.cls-8,.cls-9{fill:none;}.cls-8{stroke:#fff;}.cls-10,.cls-8{stroke-width:0.25px;}.cls-10{font-size:4.35px;letter-spacing:0.1em;}.cls-10,.cls-14,.cls-16{stroke:#000;}.cls-11,.cls-13{letter-spacing:0.02em;}.cls-12{letter-spacing:0.1em;}.cls-13{font-family:AmbroiseStd-Bold, Ambroise Std;}.cls-14{font-size:9.16px;stroke-width:0.5px;letter-spacing:0.08em;}.cls-15{font-size:8.4px;letter-spacing:0.08em;}</style></defs><title>PdPLogo</title><g id="Layer_2" data-name="Layer 2"><g id="Layer_1-2" data-name="Layer 1"><text class="cls-1" transform="translate(13.11 88.12)">P<tspan class="cls-2" x="14.16" y="0">R</tspan><tspan class="cls-3" x="26.57" y="0">OPER</tspan><tspan class="cls-4" x="77.61" y="0">L</tspan><tspan class="cls-5" x="85.8" y="0">Y</tspan></text><text class="cls-6" transform="translate(13.12 59.57)">P<tspan class="cls-2" x="14.16" y="0">R</tspan><tspan class="cls-3" x="26.57" y="0">OPE</tspan><tspan class="cls-7" x="64.53" y="0">R</tspan><tspan class="cls-3" x="76.65" y="0">TIES</tspan></text><path class="cls-8" d="M126.71,87.72a.72.72,0,0,0,.68.08,1.5,1.5,0,0,0,.57-.47"/><path class="cls-8" d="M127.51,86s.07,0,.1,0c.23.24.62.55.49.88a1.44,1.44,0,0,1-.68.77,1,1,0,0,1-.94-.05"/><path class="cls-9" d="M118.68,71.29a1.75,1.75,0,0,0-.73-.62,4.82,4.82,0,0,1-.84-.45,2,2,0,0,0-.39-.27c-.36-.14-.49.21-.63.49s-.4.8-.6,1.2c-.4.77-.79,1.54-1.2,2.31-.8,1.53-1.63,3.06-2.47,4.57a.69.69,0,0,0,.27.29A13.83,13.83,0,0,0,114,80.1l0-.08c.24,0,.37-.22.49-.45l3.7-7.18c.15-.27.29-.54.42-.82C118.57,71.46,118.63,71.4,118.68,71.29Z"/><path d="M123.57,84.83a2,2,0,0,1,1.22.56,1.68,1.68,0,0,1,.6,1.23,2.58,2.58,0,0,1-.47,1.34s0,0,0,0a.23.23,0,0,0,.17.17,12.37,12.37,0,0,0,1.67.42,3.7,3.7,0,0,0,.57.07,2.21,2.21,0,0,0,1.68-.91s0-.06,0-.08c-.92-.51-1.89-1-2.84-1.45a.35.35,0,0,1-.15-.35.29.29,0,0,1,.24-.17.79.79,0,0,1,.3,0l.06,0c.75.36,1.38.69,2.12,1a4.66,4.66,0,0,0,.76.34,1.79,1.79,0,0,0,.69,0,1.05,1.05,0,0,0,.67-.39,1.18,1.18,0,0,0,.14-.37,1.46,1.46,0,0,0,.07-.51,1,1,0,0,0-.2-.15c-.11,0-.22-.12-.33-.18-.61-.34-1.19-.76-1.8-1.12l-.32-.19-.65-.39c-.13-.09-.43-.23-.45-.44a.26.26,0,0,1,.11-.2.52.52,0,0,1,.26-.1,1,1,0,0,1,.51.2c.22.15,1.6,1,2,1.29a4.15,4.15,0,0,0,1.36.72,1.2,1.2,0,0,0,.38,0l.25,0a.46.46,0,0,0,.16-.07.57.57,0,0,0,.25-.21,2.15,2.15,0,0,0,.28-.49.86.86,0,0,0,0-.57c0-.1-3.78-2.59-4.14-2.91a.48.48,0,0,1-.15-.16c-.05-.15,0-.36.15-.38a.23.23,0,0,1,.18,0c.5.22,4.21,2.72,4.35,2.79a2.23,2.23,0,0,0,.33.2,1.16,1.16,0,0,0,.31.07.7.7,0,0,0,.33-.12,1.92,1.92,0,0,0,.63-.7.82.82,0,0,0,0-.65,2.75,2.75,0,0,0-.63-.76,16.46,16.46,0,0,0-1.69-1.33c-.48-.35-.85-.6-1.41-1-.91-.72-.45-.36-1.86-1.39a17.87,17.87,0,0,0-1.85-1.25c-.29-.17-.77-.48-1.06-.64a6,6,0,0,0-.77-.43,5.43,5.43,0,0,0-.84.18.77.77,0,0,0-.36.2,3.1,3.1,0,0,0-.26.34,12.88,12.88,0,0,1-1.2,1.31l-.28.2a1.61,1.61,0,0,1-.28.17l-.41.16-.34.11a2.23,2.23,0,0,1-.36,0,1.86,1.86,0,0,1-1-.13,1,1,0,0,1-.56-.9,1.58,1.58,0,0,1,.09-.36,8.56,8.56,0,0,1,.75-1.44c0-.1.11-.2.17-.3l.26-.4a9,9,0,0,0,.52-.84,7.84,7.84,0,0,1-2.88-1,11,11,0,0,1-.68,1.48c-.3.59-.62,1.16-.94,1.74l-1,1.88c-.33.58-1,1.75-1,1.69l1.21,1.63a1.49,1.49,0,0,1,.27-.33,1.46,1.46,0,0,1,.93-.25,1.25,1.25,0,0,1,1,.41,1.45,1.45,0,0,1,.2.34l0,.08,0,.08,0,.1a1.44,1.44,0,0,0,.11.19l.07.08c.36-.51.57-1,1.09-1.11a1.5,1.5,0,0,1,1.37.67,1.3,1.3,0,0,1,.1.15l.09.16a1,1,0,0,1,.07.15,1.15,1.15,0,0,1,.06.17,1,1,0,0,1,0,.16l0,.17c0,.06,0,.12,0,.18v.35s0,0,0,0l.06,0h.08a1.54,1.54,0,0,1,.88.31,1.91,1.91,0,0,1,.4.49,1.52,1.52,0,0,1,.15.47"/><path d="M116.51,69.82l1.18.86a2.85,2.85,0,0,0,.55.35.89.89,0,0,1,.43.29s-.31.71-.5,1.07c-1.29,2.44-4,7.67-4.06,7.66l0,0c-.69-.55-1.59-.75-2.2-1.4a32.79,32.79,0,0,1,2-3.87c.16-.32.3-.64.44-1A27.4,27.4,0,0,1,116.51,69.82Z"/><path d="M117.31,83.94a8.78,8.78,0,0,0,1-1.35,1.08,1.08,0,0,0,0-.81.79.79,0,0,0-.44-.53,1.19,1.19,0,0,0-.92-.06,2.45,2.45,0,0,0-.33.41,5.68,5.68,0,0,0-.63,1c-.16.31.08.7.32.93a1.55,1.55,0,0,0,.39.28.75.75,0,0,0,.31.15A.46.46,0,0,0,117.31,83.94Z"/><path d="M119.27,85.8c.07-.08,1.54-2.22,1.77-2.5a2,2,0,0,0,.25-.42.74.74,0,0,0,.06-.27,1.18,1.18,0,0,0-.29-.73.94.94,0,0,0-.88-.42c-.3.06-.44.39-.63.65l-.61.86-1.2,1.69c-.14.19-.08.38,0,.61a1.17,1.17,0,0,0,.6.73.89.89,0,0,0,.6,0l.17-.07.08,0a.5.5,0,0,0,.07-.08l0,0Z"/><path d="M124.74,87a7.18,7.18,0,0,1-.58,1l-.47.64c-.38.52-1,.31-1.37-.15a1.12,1.12,0,0,1-.22-.93,5.74,5.74,0,0,1,.58-1c.25-.37.51-.95.95-1a.93.93,0,0,1,1,.44,1.39,1.39,0,0,1,.14.87"/><path d="M133.25,72.73c-1.62.3-3.25-.32-4.88-.46a12.92,12.92,0,0,0-4.87.46,2.16,2.16,0,0,0-1,.73c-.62.89-1.2,1.82-1.75,2.78a1.27,1.27,0,0,0-.22.86.47.47,0,0,0,.58.43,1.86,1.86,0,0,0,.39-.1l.36-.12.54-.28.29-.19a3.18,3.18,0,0,0,.53-.44,4.82,4.82,0,0,0,.86-1.13,12.21,12.21,0,0,1,1.55-.51.3.3,0,0,1,.16,0,8,8,0,0,0,1.25.76,25,25,0,0,1,3.52,2.13c.91.64,1.73,1.43,2.63,2.09a9.16,9.16,0,0,1,.89.76c.29.27.45.54.88.46l.15,0a4.86,4.86,0,0,0,.92-.57,3.19,3.19,0,0,0,.74-.84.15.15,0,0,0,0-.18"/><path d="M136.52,77.32c.41.74.85,1.72,1.27,2.45a2,2,0,0,0,.23.34,2.67,2.67,0,0,0,.36-.14,4.11,4.11,0,0,0,.39-.24c.48-.31,1-.69,1.49-1-.53-1.17-1.11-2.31-1.73-3.43-.29-.52-.53-1.08-.8-1.61l-.44-.81c-.11-.19,0,.05-.37-.59l-.25-.46c-.41-.72-.29-.51-.73-1.22l-.39-.71a10.54,10.54,0,0,0-2.15,1.42"/><path d="M121.14,87.57c.06-.08,1.35-2,1.56-2.26a2.87,2.87,0,0,0,.28-.48.79.79,0,0,0,0-.3c-.06-.43-.08-.54-.32-.77a1.73,1.73,0,0,0-.41-.2,1.05,1.05,0,0,0-.61,0,2.74,2.74,0,0,0-.32.36c-.18.28-.41.57-.59.84-.36.54-.71,1-1.07,1.48a1.09,1.09,0,0,0,0,.83,1,1,0,0,0,.49.54.86.86,0,0,0,.61.15l.16-.07.07,0a.58.58,0,0,0,.08-.1Z"/><path d="M21.13,23v5.06L30,27.89V21.56l-8.47.91A.5.5,0,0,0,21.13,23Z"/><path d="M21.13,33.84V29H30V35.2l-8.36-.71A.63.63,0,0,1,21.13,33.84Z"/><path d="M40.37,35.28,40.3,29H31.42V35.2L39.7,36A.67.67,0,0,0,40.37,35.28Z"/><path d="M31.42,27.79V21.41l8.37-.94a.58.58,0,0,1,.59.62v6.57Z"/><path d="M113,22.44l6.71.67.07,4.92h-7.19V22.86A.4.4,0,0,1,113,22.44Z"/><path d="M112.61,28.87h7.13v4.87l-6.73.69a.39.39,0,0,1-.4-.41Z"/><path d="M121,28V23.22l6.6.7a.66.66,0,0,1,.54.68V28Z"/><path d="M121,28.87l7.14-.08v3.73a.36.36,0,0,1-.3.37L121,33.6Z"/><path d="M142.86,33.16,120.33,9.69,87.5,38.35l0,0h-19a.51.51,0,0,1-.31-.11L30,9.19,0,33.89,28.79.58A1,1,0,0,1,30.16.46L51.09,17.25,120.61,0a1,1,0,0,1,1.07.42Z"/><polygon points="29.97 0.33 65.16 13.77 51.09 17.25 29.97 0.33"/><line class="cls-9" x1="45.48" y1="41.48" x2="45.48" y2="70.24"/><text class="cls-10" transform="translate(109.62 88.52) scale(1.05 0.99)">L<tspan class="cls-11" x="2.28" y="0">L</tspan><tspan class="cls-12" x="4.21" y="0">C</tspan><tspan class="cls-13" x="6.63" y="0">.</tspan></text><text class="cls-14" transform="translate(27.93 67.64) scale(1.06 1)">D<tspan class="cls-15" x="5.59" y="0">ONE</tspan></text><line class="cls-9" x1="14.05" y1="88.52" x2="145.73" y2="88.52"/><line class="cls-16" x1="49.43" y1="65.13" x2="135.68" y2="65.13"/><line class="cls-16" x1="13.89" y1="64.79" x2="26.94" y2="64.79"/><line class="cls-9" x1="135.55" y1="69.9" x2="135.55" y2="62.99"/><line class="cls-9" x1="120.33" y1="9.69" x2="120.33" y2="35.66"/></g></g></svg>