<svg id="Layer_1" data-name="Layer 1" xmlns="http://www.w3.org/2000/svg" viewBox="0 0 716.01 506.68"><defs><style>.cls-1{fill:#080478;}.cls-2{fill:#060d73;}</style></defs><path class="cls-1" d="M973.44,231l4.65.13c1.63.72,2.35,2.28,3.23,3.63q50.83,78.46,101.62,157c.61.94,1.79,1.71,1.57,2.3-5.83-5.43-12.16-10.84-17.94-16.8-21-21.65-41.82-43.48-62.71-65.24-9.35-9.75-18.85-19.36-28-29.32-2.45-2.67-3.52-2.11-5.82-.1q-80.16,70.06-160.42,140a8.32,8.32,0,0,1-6,2.3q-45.08-.11-90.16,0a10.85,10.85,0,0,1-7-2.46Q613.31,351.38,520.05,280.3c-2.94-2.24-4.67-2.48-7.77.08q-69.4,57.36-139.09,114.41c-1.36,1.12-2.57,2.59-4.66,2.17q28.31-32.91,56.61-65.82,41.31-47.86,82.65-95.74c2.94-3.43,5.69-4,9.77-2.46q85.73,32.87,171.49,65.61a14.92,14.92,0,0,0,9.52.47" transform="translate(-368.53 -231.02)"/><path class="cls-1" d="M545.7,371.56c-6.43,0-12.87-.13-19.3.06-2.7.07-3.66-.6-3.6-3.47.2-8.69.17-17.39,0-26.08,0-2.53.84-3.35,3.25-3.6,12.52-1.28,25-2.67,37.53-4.1,3.73-.42,5.11,1,5,4.77-.18,9.44-.19,18.89,0,28.33.07,2.94-1,3.46-3.59,3.39" transform="translate(-368.53 -231.02)"/><path class="cls-1" d="M545.7,377.11c6.45,0,12.91.12,19.36-.06,2.59-.07,3.28.72,3.27,3.27-.06,9.14.18,18.28.21,27.43,0,4.49-1.23,5.46-5.72,5-11.64-1.14-23.27-2.42-34.94-3.25-4.18-.29-5.5-1.56-5.27-5.84.41-7.78.22-15.6.06-23.4-.06-2.53.64-3.3,3.21-3.23C532.48,377.23,539.09,377.11,545.7,377.11Z" transform="translate(-368.53 -231.02)"/><path class="cls-1" d="M493.44,372.76c-6.45,0-12.9-.11-19.34.05-2.56.07-3.34-.72-3.28-3.27.16-7,.14-14.09,0-21.13-.05-2.82,1-4.05,3.82-4.33q19.46-1.93,38.88-4.09c2.29-.25,2.8.54,2.78,2.66-.1,8.84-.12,17.69,0,26.53,0,2.43-.82,3.06-3.1,3" transform="translate(-368.53 -231.02)"/><path class="cls-1" d="M516.27,393.17c0,4.35-.08,8.7,0,13.05.05,1.92-.49,2.65-2.54,2.46-13.28-1.25-26.57-2.41-39.85-3.59-2.3-.21-3-1.73-3-3.74,0-7.34,0-14.69-.05-22,0-1.85.79-2.23,2.43-2.22,13.51,0,27,.06,40.52,0,2,0,2.57.67,2.51,2.6C516.18,384.18,516.27,388.68,516.27,393.17Z" transform="translate(-368.53 -231.02)"/><path class="cls-1" d="M951.67,372.61c-5,0-9.91-.1-14.86,0-2.33.07-3.51-.29-3.43-3.08.19-7.19.14-14.39,0-21.59,0-3,1.08-4,4-3.67q14.74,1.6,29.53,2.95c2,.17,2.92.56,2.9,2.83q-.09,10.11.27,20.23c.08,2.28-1,2.33-2.72,2.31C962.17,372.57,956.92,372.61,951.67,372.61Z" transform="translate(-368.53 -231.02)"/><path class="cls-1" d="M952.11,376.66c5,0,9.92.08,14.88,0,2.2-.06,3.25.39,3.18,2.92-.16,6.45-.13,12.91,0,19.37.05,2.11-.69,2.92-2.73,3.11q-15,1.44-30,3c-2.47.25-3.58-.6-3.55-3.23.1-7.51.13-15,0-22.52-.05-2.36,1-2.69,2.94-2.66C941.89,376.72,947,376.66,952.11,376.66Z" transform="translate(-368.53 -231.02)"/><path class="cls-1" d="M994.63,376.36c4.93,0,9.87.1,14.79,0,2.39-.08,3.55.41,3.44,3.14-.2,4.62-.15,9.27,0,13.91.07,2.52-.69,3.83-3.42,4.09-10.27,1-20.53,2.11-30.79,3.27-1.65.18-2.42,0-2.39-1.91q.15-9.87,0-19.75c0-2.09.86-2.47,2.67-2.44" transform="translate(-368.53 -231.02)"/><path class="cls-1" d="M994.63,372.61c-5.1,0-10.2-.08-15.3,0-2.14,0-3.21-.26-3.12-2.85.21-6.29.15-12.59,0-18.89,0-2.13.43-2.88,2.73-2.6q14.73,1.74,29.5,3.17c3.19.31,4.44,1.91,4.37,5-.1,4.35-.19,8.71,0,13,.14,2.72-1,3.21-3.38,3.14C1004.54,372.5,999.58,372.61,994.63,372.61Z" transform="translate(-368.53 -231.02)"/><path class="cls-2" d="M871.17,619.12c-6.15-4.86-14-10.9-21.38-16.54-10.22-7.59-24.27-17.7-42.61-30.19-2.24-1.53-4.61-3.08-7-4.63-1.29-.83-2.57-1.64-3.86-2.45-23-14.34-51.17-28.81-58.29-32.43l-17,5.42c-4.5,6.81-23.84,33.45-52.93,35.7a44.42,44.42,0,0,1-4.65.25c-6.56,0-11.08-1.78-13.84-5.45-3.29-4.37-3.54-10.82-.8-20.26a5.24,5.24,0,0,1,.3-.78c5.38-10.83,16.38-26.47,26-39.73-1.85-.29-3.78-.57-5.76-.87-11.55-1.71-23.49-3.47-29.8-7.05-2.74-1.56-7.06-4.17-11.78-7.1L569.4,596.53l4.9,5.46c.2.25,5.9,7.33,13.91,17.35l.15-.2a20.83,20.83,0,0,1,17-8.34,25.72,25.72,0,0,1,16.25,6.05,27.63,27.63,0,0,1,9,13.65l5.49-7.48a20.82,20.82,0,0,1,17-8.36,25.68,25.68,0,0,1,16.25,6.05c8.1,6.65,11.55,17.09,9.46,26.09.36,0,.71-.07,1.07-.07a25.79,25.79,0,0,1,16.25,6.06c8,6.59,11.47,16.85,9.54,25.77a18.25,18.25,0,0,1,2-.11,25.84,25.84,0,0,1,16.25,6c10.6,8.72,13.26,23.92,5.92,33.88L726,723.46c17,5.85,26.89,7.56,27.06,7.59l.39.08c4.84,1.22,19.19,3.44,27.4-1,5.94-3.19,10.45-8.55,13.17-12.43l-44.36-21.41a4.68,4.68,0,0,1,4.09-8.43l47,22.72a3.84,3.84,0,0,1,1.07,0c3.22.52,12.67,1.23,17.41-1.87,5.77-3.79,7-12.65,7.22-17L769.36,658.7a4.68,4.68,0,1,1,4.69-8.11l58.56,33.9c4.09.27,13.6.16,17.85-3.27,7.56-6.16,6.6-15.86,6-19.06l-67.74-40.68a4.68,4.68,0,1,1,4.82-8l71.31,42.8c4.93,1.27,16.24,2.89,21.69-7.1,4.07-7.46,2.59-14.33-4.46-21Z" transform="translate(-368.53 -231.02)"/><path class="cls-2" d="M667.69,649.05c4.44-6,2.5-15.5-4.33-21.11a16.35,16.35,0,0,0-10.3-3.92,11.43,11.43,0,0,0-9.43,4.53l-30.06,41c-4.44,6-2.5,15.46,4.32,21.09a16.38,16.38,0,0,0,10.29,3.92,11.4,11.4,0,0,0,9.44-4.55l0-.07Z" transform="translate(-368.53 -231.02)"/><path class="cls-2" d="M690.14,660a16.45,16.45,0,0,0-10.3-3.92A11.56,11.56,0,0,0,672,659c-.57.51-24.8,33.6-24.8,33.6-.18.25-.29.55-.46.82a11.84,11.84,0,0,0-1,2.07c-2.21,5.86,0,13.42,5.82,18.21a16.44,16.44,0,0,0,10.32,3.92,11.36,11.36,0,0,0,9.41-4.54l23.21-31.91C698.91,675.1,697,665.64,690.14,660Z" transform="translate(-368.53 -231.02)"/><path class="cls-2" d="M717.89,691.74a16.4,16.4,0,0,0-10.3-3.93,11.36,11.36,0,0,0-9.42,4.56s-16,21.9-16.41,22.75c-2.49,5.91-.25,13.74,5.7,18.66a16.46,16.46,0,0,0,10.32,3.91,11.36,11.36,0,0,0,9.41-4.55l15-20.33C726.65,706.79,724.71,697.34,717.89,691.74Z" transform="translate(-368.53 -231.02)"/><path class="cls-2" d="M620.33,644.5c3.8-6,1.79-15.09-4.7-20.41a16.38,16.38,0,0,0-10.31-3.92,11.39,11.39,0,0,0-9.43,4.54l-9.59,13c-4.42,6-2.48,15.48,4.33,21.09a16.39,16.39,0,0,0,10.31,3.92,11.61,11.61,0,0,0,7.67-2.7C609.23,659.44,620.2,644.71,620.33,644.5Z" transform="translate(-368.53 -231.02)"/><path class="cls-2" d="M837.42,496c-6.15-.52-13.31-2.2-21.61-4.14-13-3-29.1-6.84-46-6.84h-1.16c-38.21.37-69.31,5.38-74,11.92-1.09,1.53-2.36,3.28-3.7,5.13l-3.13,4.3L685.17,510c-9.82,13.49-21.92,30.39-27.54,41.54-2.22,7.84-1.33,10.65-.59,11.64,1.06,1.41,4,1.7,6.35,1.7a37.68,37.68,0,0,0,3.82-.21c27.93-2.16,46.52-32.44,46.71-32.74a4.72,4.72,0,0,1,2.59-2l9.25-2.94L737,523.38a4.58,4.58,0,0,1,1.42-.22,4.68,4.68,0,0,1,2.09.49c.37.19,33.43,16.74,60.14,33.33,1.9,1.19,3.78,2.36,5.6,3.54,2.14,1.39,4.23,2.76,6.22,4.12,18,12.26,31.78,22.15,42,29.7,15,11.09,22.07,17,22.55,17.42h0l9.62,7.93.11-.06a59.9,59.9,0,0,0,16-10.68c2.89-2.61,5-4.79,7-6.88a87.12,87.12,0,0,1,8.19-7.84l.23-.19L860.63,492C852.65,494.74,844.44,496.56,837.42,496Z" transform="translate(-368.53 -231.02)"/><path class="cls-2" d="M627.43,474.38a3.38,3.38,0,0,0-1-4.47L593.79,450a2.56,2.56,0,0,0-1.37-.39,2.81,2.81,0,0,0-2.45,1.49l-72.62,129a3.38,3.38,0,0,0,1.06,4.47L551,604.45a2.82,2.82,0,0,0,3.83-1.11Z" transform="translate(-368.53 -231.02)"/><path class="cls-2" d="M971.57,580.1,899,451.15a2.83,2.83,0,0,0-2.46-1.5,2.61,2.61,0,0,0-1.36.38l-32.6,19.88a3.38,3.38,0,0,0-1.06,4.47l72.61,129a2.8,2.8,0,0,0,3.84,1.11l32.57-19.87A3.39,3.39,0,0,0,971.57,580.1Z" transform="translate(-368.53 -231.02)"/></svg>