<svg id="Layer_1" data-name="Layer 1" xmlns="http://www.w3.org/2000/svg" viewBox="0 0 1459.41 1158.63"><defs><style>.cls-1{fill:#fff;}.cls-2{fill:#060d73;}</style></defs><circle class="cls-1" cx="727.7" cy="579.31" r="579.31"/><path class="cls-2" d="M1034,1009.9a200,200,0,0,1-44.14-5.17l-.2-.05-.31,0-.3-.07-.82-.15-.13,0c-4.84-.88-31-6-73.45-19.9l-6.58-2.16,8.12-11c25.23-34.26,16.28-86.39-19.95-116.21-14.76-12.11-32.8-19.39-50.79-20.49l-5-.31.34-5c1.91-28.29-11.17-57.62-34.14-76.55a89,89,0,0,0-48-20.32l-4.93-.47.43-4.93c2.48-28.77-10.56-58.6-34-77.85C704,635.84,684.23,628.5,664.5,628.5c-23.73,0-45.17,10.58-58.81,29l-11.87,16.18-3.7-7.2A93.46,93.46,0,0,0,566,636.72C549.82,623.38,530.06,616,510.34,616s-37.94,7.28-51.42,20.52L455,640.43l-3.46-4.32c-22.09-27.59-36.83-45.92-37.46-46.69l-.07-.08-13.5-15,183.9-326.59,4.42,2.72c12.68,7.79,22.55,13.69,29.33,17.55,21.23,12,60.24,17.78,98,23.35l10.48,1.57-4.78,6.65c-26.1,36.36-58.18,82.38-74.73,115.71a19,19,0,0,0-1.3,3.36c-9.34,32.13-8.25,54.31,3.4,69.81C659.06,501.62,675,508,697.86,508a149.31,149.31,0,0,0,15.4-.82h.13c41-3.2,80.69-21.14,118-53.3A324.65,324.65,0,0,0,886,392.59l1-1.43,51.34-16.32,1.83.94c32.45,16.56,115.36,59.71,184.15,102.63,4.14,2.59,8.27,5.21,12.44,7.87,9,5.76,16.15,10.48,22.58,14.86,50.54,34.43,96.76,67.17,137.37,97.32,26.41,20.15,50.86,39.07,68.91,53.32l35.16,29,.14.12c21,20.07,25.19,39.66,13.22,61.63-8.35,15.31-23.08,23.4-42.59,23.4a89.37,89.37,0,0,1-20.38-2.55l-.75-.18L1120.77,625.34a20.12,20.12,0,1,0-20.72,34.49L1316.83,790l.28,2.46c1.43,12.7,1,36.36-18.39,52.09-7.69,6.21-24,9.76-44.79,9.76-2.43,0-4.78,0-7-.15l-1.22-.06-188-108.89a20.11,20.11,0,0,0-27.51,7.33,20.12,20.12,0,0,0,7.32,27.51l181.76,105.23-.35,3.23c-1.62,15.26-6.51,35.37-20.55,44.58-8.47,5.53-22.56,6.69-32.89,6.69a133.19,133.19,0,0,1-19.76-1.42,14.16,14.16,0,0,0-2.22-.18h-1.14l-150.6-72.72a20,20,0,0,0-8.77-2,20.2,20.2,0,0,0-18.11,11.38,20.13,20.13,0,0,0,9.34,26.85l138,66.58-4,4.91c-10.56,12.92-21.8,22.63-33.41,28.86C1065.13,1007.17,1051,1009.9,1034,1009.9Z" transform="translate(-229.91 39.39)"/><path class="cls-2" d="M584.16,886.46c-10.38,0-21.06-4.08-30.06-11.5-20-16.52-25.86-44-13.1-61.29l97.08-132.34c6.14-8.26,15.27-12.6,26.42-12.6,10.4,0,21.09,4.09,30.07,11.52,20,16.43,25.91,44,13.13,61.32l-97,132.16C604.5,882.06,595.34,886.46,584.16,886.46Z" transform="translate(-229.91 39.39)"/><path class="cls-2" d="M692.88,960.83c-10.42,0-21.12-4.09-30.15-11.52-16.51-13.62-23.79-36-17.3-53.17a34.56,34.56,0,0,1,3-5.8c.36-.57.62-1.08.83-1.49l.36-.69.21-.28c24.89-34,73.47-100.22,79.16-107.4l.31-.39.38-.32A32.5,32.5,0,0,1,751,772.31c10.38,0,21.07,4.09,30.09,11.51,20,16.5,25.89,44,13.13,61.34l-75,103.07C713.11,956.49,704,960.83,692.88,960.83Z" transform="translate(-229.91 39.39)"/><path class="cls-2" d="M808.88,1025.77c-10.42,0-21.12-4.09-30.13-11.51-16.85-13.91-24.1-36.52-17.24-53.77l.17-.45.27-.41c4.26-6.62,39.16-54.4,52.24-72.25,6.12-8.29,15.23-12.67,26.37-12.67,10.38,0,21.07,4.1,30.1,11.53,20,16.44,25.88,43.9,13.13,61.23l-48.55,65.64C829.14,1021.39,820,1025.77,808.88,1025.77Z" transform="translate(-229.91 39.39)"/><path class="cls-2" d="M496.2,783.57c-10.39,0-21.08-4.09-30.11-11.53-19.66-16.19-25.67-44.25-13.14-61.27l31-41.85c6.15-8.27,15.28-12.64,26.42-12.64,10.4,0,21.09,4.1,30.11,11.53,18.7,15.33,25.12,41.85,14.31,59.11l-.09.14-.1.14c-3.19,4.43-32.38,43.49-36.7,48.61l-.29.35-.36.29A32.68,32.68,0,0,1,496.2,783.57Z" transform="translate(-229.91 39.39)"/><path class="cls-2" d="M1390.37,620.09c-6.14-5.09-29.48-24.18-72.76-56.22-39.73-29.43-85.38-61.72-135.68-96-5.92-4-12.52-8.41-20.19-13.37-6.28-4.07-12.7-8.09-18.14-11.48-82.55-51.29-183.24-102.13-194.45-107.76l-.14-.08a20.15,20.15,0,0,0-15.1-1.19l-66.07,21a20.25,20.25,0,0,0-11.13,8.78,279.78,279.78,0,0,1-41,49.6C792.31,436,754.94,463.61,709.78,467.1l-.18,0a115,115,0,0,1-11.75.67c-9.3,0-13.44-1.57-14.79-2.25l-1.85-.92-.65-2c-1.08-3.22-2.1-11.47,3.23-30.64l.13-.48.23-.45c17.21-33.83,52.49-83.72,88.06-132.58l8.55-11.78c3.57-4.88,6.9-9.44,10.12-13.88,4.81-6.63,8.73-12.06,12-16.6,2.35-3.31,14.77-14.9,75.49-24.69,43.3-7,99.87-11.13,159.29-11.7h3.73c54.09,0,105.88,12.16,147.49,21.94,27,6.33,50.3,11.8,70.5,13.49,2.93.24,6,.36,9.13.36,17.13,0,37.34-3.69,60.06-11l3.89-1.25,181.45,322.35-3,2.67c-8.56,7.53-15.07,14.37-21.37,21l-.18.19c-6.4,6.68-13,13.56-22.08,21.8-18,16.34-34.41,26-45,31.13l-2.89,1.42Z" transform="translate(-229.91 39.39)"/><path class="cls-2" d="M231.36,531.5l-.64-1.09a6.25,6.25,0,0,1-.06-6L467.24,104.21,576.93,171.1l.64,1.35a6.32,6.32,0,0,1-.19,5.67L340.84,598.28Z" transform="translate(-229.91 39.39)"/><path class="cls-2" d="M1341.81,178.11a6.2,6.2,0,0,1,.09-6.06l.63-1.06L1452,104.24l236.58,420.15a6.21,6.21,0,0,1-.13,6.12l-.62,1L1578.4,598.29Z" transform="translate(-229.91 39.39)"/></svg>