<svg xmlns="http://www.w3.org/2000/svg" viewBox="0 0 135.36 141.36"><defs><style>.cls-1{fill:#060d73;}</style></defs><g id="Layer_2" data-name="Layer 2"><g id="Layer_1-2" data-name="Layer 1"><path class="cls-1" d="M95.53,117.86H39.4V103.42a44.56,44.56,0,1,1,56.13.56Zm-51.92-4.21H91.32V101.91l.83-.63a40.34,40.34,0,1,0-49.34-.52l.8.64Z"/><path class="cls-1" d="M67.82,31.57a37.53,37.53,0,0,0-23.27,67L46.42,100v10.81H88.51V100.51L90.46,99A37.54,37.54,0,0,0,67.82,31.57Zm-11,12.92h0A26.34,26.34,0,0,0,42.91,67.7H38.7A30.57,30.57,0,0,1,58.42,39.15l1.49,3.94A26.53,26.53,0,0,0,56.84,44.49Z"/><line class="cls-1" x1="56.84" y1="44.49" x2="56.84" y2="44.49"/><rect class="cls-1" x="48.17" y="121.72" width="38.24" height="4.21"/><rect class="cls-1" x="53.08" y="129.44" width="28.41" height="4.21"/><rect class="cls-1" x="59.4" y="137.16" width="15.79" height="4.21"/><rect class="cls-1" x="65.01" width="4.21" height="21.05"/><rect class="cls-1" x="27.13" y="12.63" width="4.21" height="21.05" transform="translate(-8.04 24.31) rotate(-40.16)"/><rect class="cls-1" x="8.53" y="48.06" width="4.21" height="21.05" transform="matrix(0.07, -1, 1, 0.07, -48.51, 65.34)"/><rect class="cls-1" x="4.32" y="93.66" width="21.05" height="4.21" transform="translate(-45.89 20.25) rotate(-30)"/><rect class="cls-1" x="95.61" y="20.19" width="21.05" height="4.21" transform="translate(20.64 89.03) rotate(-49.84)"/><rect class="cls-1" x="114.2" y="55.62" width="21.05" height="4.21" transform="translate(-3.53 8.33) rotate(-3.77)"/><rect class="cls-1" x="118.41" y="84.39" width="4.21" height="21.05" transform="translate(-21.94 151.82) rotate(-60)"/></g></g></svg>