<svg xmlns="http://www.w3.org/2000/svg" viewBox="0 0 249.57 165.07"><defs><style>.cls-1{fill:#060d73;}.cls-2{fill:#080478;}</style></defs><g id="Layer_2" data-name="Layer 2"><g id="Layer_1-2" data-name="Layer 1"><path class="cls-1" d="M238.41,150.46,236,148.63c-1.13-.84-2.69-2-4.72-3.34l-.78-.51-.43-.28c-2.55-1.58-5.67-3.19-6.46-3.59l-1.88.6c-.5.76-2.64,3.71-5.86,4a4.7,4.7,0,0,1-.52,0,1.76,1.76,0,0,1-1.53-.6,2.48,2.48,0,0,1-.09-2.24l0-.09a38.76,38.76,0,0,1,2.88-4.4l-.64-.1a11.26,11.26,0,0,1-3.3-.78c-.3-.17-.78-.46-1.3-.78L205,148l.54.61s.66.81,1.54,1.92l0,0a2.31,2.31,0,0,1,1.88-.93,2.87,2.87,0,0,1,1.8.67,3,3,0,0,1,1,1.52l.61-.83a2.3,2.3,0,0,1,1.88-.93,2.89,2.89,0,0,1,1.8.67,2.94,2.94,0,0,1,1,2.89h.12a2.85,2.85,0,0,1,1.8.67,3,3,0,0,1,1.06,2.86h.22a2.83,2.83,0,0,1,1.8.67,2.8,2.8,0,0,1,.65,3.75l-.41.56a20.33,20.33,0,0,0,3,.84h.05a5,5,0,0,0,3-.11,4.52,4.52,0,0,0,1.46-1.37L225,159a.51.51,0,0,1-.24-.69.52.52,0,0,1,.69-.24l5.21,2.52h.12a3.42,3.42,0,0,0,1.92-.21,2.44,2.44,0,0,0,.8-1.88l-6.32-3.66a.52.52,0,1,1,.52-.9l6.48,3.76a3.44,3.44,0,0,0,2-.37,2.22,2.22,0,0,0,.67-2.11l-7.5-4.5a.52.52,0,1,1,.53-.89l7.9,4.74a2,2,0,0,0,2.4-.79,1.77,1.77,0,0,0-.49-2.33Z"/><path class="cls-1" d="M215.87,153.78a1.78,1.78,0,0,0-.48-2.34,1.82,1.82,0,0,0-1.14-.43,1.27,1.27,0,0,0-1.05.5l-3.33,4.54a1.78,1.78,0,0,0,.48,2.34,1.88,1.88,0,0,0,1.14.43,1.27,1.27,0,0,0,1-.5h0Z"/><path class="cls-1" d="M218.35,155a1.8,1.8,0,0,0-1.14-.43,1.24,1.24,0,0,0-.86.32c-.07.05-2.75,3.72-2.75,3.72l0,.09a1,1,0,0,0-.12.23,1.86,1.86,0,0,0,.65,2,1.8,1.8,0,0,0,1.14.43,1.27,1.27,0,0,0,1-.5l2.57-3.54A1.76,1.76,0,0,0,218.35,155Z"/><path class="cls-1" d="M221.43,158.51a1.83,1.83,0,0,0-1.14-.44,1.25,1.25,0,0,0-1,.51s-1.77,2.42-1.81,2.52a1.83,1.83,0,0,0,.63,2.06,1.81,1.81,0,0,0,1.14.44,1.25,1.25,0,0,0,1-.51l1.67-2.25A1.77,1.77,0,0,0,221.43,158.51Z"/><path class="cls-1" d="M210.62,153.27a1.9,1.9,0,0,0-1.66-2.69,1.27,1.27,0,0,0-1,.5l-1.07,1.44a1.77,1.77,0,0,0,.48,2.33,1.83,1.83,0,0,0,1.14.44,1.29,1.29,0,0,0,.85-.3C209.39,154.93,210.61,153.3,210.62,153.27Z"/><path class="cls-1" d="M234.67,136.82a17.49,17.49,0,0,1-2.4-.45,22,22,0,0,0-5.1-.76h-.12c-4.24,0-7.68.59-8.2,1.32l-.41.57-.34.47-.3.41a42.74,42.74,0,0,0-3.05,4.6c-.24.87-.14,1.18-.06,1.29a1,1,0,0,0,.7.19l.42,0c3.1-.24,5.16-3.59,5.18-3.62a.53.53,0,0,1,.28-.23l1-.33,1.24-.39a.45.45,0,0,1,.16,0,.46.46,0,0,1,.23.06s3.7,1.85,6.66,3.69l.62.39.69.46c2,1.36,3.52,2.45,4.65,3.29,1.66,1.23,2.44,1.89,2.5,1.93h0l1.06.88h0a6.6,6.6,0,0,0,1.78-1.18c.32-.29.55-.53.77-.76a8.57,8.57,0,0,1,.91-.87l0,0-6.36-11.31A6.39,6.39,0,0,1,234.67,136.82Z"/><path class="cls-1" d="M211.41,134.43a.36.36,0,0,0-.12-.49l-3.61-2.21a.37.37,0,0,0-.15,0,.31.31,0,0,0-.27.17l-8,14.28a.38.38,0,0,0,.11.5l3.61,2.2a.32.32,0,0,0,.43-.12Z"/><path class="cls-1" d="M249.53,146.14l-8.05-14.28a.28.28,0,0,0-.42-.12l-3.61,2.2a.38.38,0,0,0-.12.49l8,14.29a.3.3,0,0,0,.42.12l3.61-2.2A.39.39,0,0,0,249.53,146.14Z"/><path class="cls-2" d="M206.35,0l1.59.05c.56.24.8.77,1.1,1.23q17.34,26.78,34.67,53.55c.2.32.61.59.53.79-2-1.85-4.15-3.7-6.12-5.73C231,42.5,223.86,35.06,216.73,27.63c-3.19-3.32-6.43-6.6-9.54-10-.83-.91-1.2-.72-2,0q-27.35,23.9-54.73,47.76a2.85,2.85,0,0,1-2,.78q-15.37,0-30.75,0a3.64,3.64,0,0,1-2.38-.83Q83.51,41.06,51.69,16.81a1.74,1.74,0,0,0-2.65,0Q25.36,36.4,1.59,55.87c-.46.38-.88.88-1.59.74Q9.66,45.38,19.31,34.16q14.1-16.33,28.2-32.67A2.58,2.58,0,0,1,50.84.66Q80.09,11.87,109.34,23a5.09,5.09,0,0,0,3.25.16"/><path class="cls-2" d="M60.44,47.94c-2.2,0-4.39,0-6.59,0-.92,0-1.24-.2-1.22-1.18.06-3,0-5.93,0-8.9,0-.86.29-1.14,1.11-1.22q6.4-.66,12.8-1.4c1.27-.15,1.74.34,1.72,1.62-.06,3.23-.07,6.45,0,9.67,0,1-.32,1.18-1.22,1.16"/><path class="cls-2" d="M60.44,49.84c2.2,0,4.4,0,6.6,0,.88,0,1.12.24,1.12,1.11,0,3.12.06,6.24.07,9.36,0,1.53-.42,1.86-2,1.71-4-.39-7.94-.82-11.92-1.11-1.42-.1-1.88-.53-1.8-2,.14-2.65.08-5.32,0-8,0-.87.22-1.13,1.1-1.1C55.93,49.88,58.18,49.84,60.44,49.84Z"/><path class="cls-2" d="M42.61,48.35c-2.2,0-4.4,0-6.6,0-.87,0-1.14-.25-1.12-1.12.06-2.4,0-4.8,0-7.2,0-1,.35-1.39,1.3-1.48,4.42-.44,8.85-.9,13.26-1.4.79-.08,1,.19.95.91,0,3,0,6,0,9.05,0,.83-.28,1-1.06,1"/><path class="cls-2" d="M50.4,55.32c0,1.48,0,3,0,4.45,0,.65-.17.9-.87.84C45,60.18,40.48,59.79,36,59.38c-.79-.07-1-.59-1-1.27,0-2.51,0-5,0-7.52,0-.63.27-.76.83-.76,4.61,0,9.22,0,13.82,0,.69,0,.88.23.86.88C50.37,52.25,50.4,53.78,50.4,55.32Z"/><path class="cls-2" d="M198.93,48.3c-1.69,0-3.38,0-5.07,0-.8,0-1.2-.1-1.17-1,.06-2.46.05-4.92,0-7.37,0-1,.36-1.36,1.37-1.25,3.36.36,6.72.7,10.08,1,.66.06,1,.19,1,1q0,3.45.09,6.9c0,.78-.36.79-.93.79C202.51,48.29,200.72,48.3,198.93,48.3Z"/><path class="cls-2" d="M199.08,49.68c1.69,0,3.38,0,5.07,0,.75,0,1.11.13,1.09,1-.06,2.2-.05,4.4,0,6.6,0,.72-.24,1-.94,1.07-3.41.32-6.83.67-10.24,1-.84.09-1.22-.2-1.21-1.1,0-2.56.05-5.12,0-7.68,0-.81.33-.92,1-.91C195.59,49.7,197.34,49.68,199.08,49.68Z"/><path class="cls-2" d="M213.58,49.58c1.68,0,3.37,0,5,0,.81,0,1.21.14,1.17,1.07-.07,1.58-.05,3.16,0,4.74,0,.86-.23,1.31-1.16,1.4-3.51.34-7,.72-10.5,1.11-.57.07-.83,0-.82-.65,0-2.24,0-4.49,0-6.73,0-.72.29-.85.91-.84"/><path class="cls-2" d="M213.58,48.3c-1.74,0-3.48,0-5.22,0-.73,0-1.09-.08-1.06-1,.07-2.14,0-4.29,0-6.44,0-.73.14-1,.93-.89,3.35.4,6.7.75,10.06,1.08a1.45,1.45,0,0,1,1.49,1.71c0,1.48-.06,3,0,4.45,0,.93-.33,1.09-1.15,1.07C217,48.26,215.27,48.3,213.58,48.3Z"/><path class="cls-1" d="M31.17,132.37c-.86-5.77-4.11-9.42-9.38-10.49-5.07-1-10.14-.56-15.2.33-1.09.19-1,.88-1,1.65q0,9.75,0,19.51c0,6.5,0,13,0,19.51,0,1.38.39,1.68,1.67,1.61,2-.1,4-.08,6,0,1,0,1.28-.34,1.27-1.31-.06-3.05,0-6.09,0-9.14,0-3.36,0-3.36,3.4-3.47,6.3-.2,10.84-3.35,12.61-8.82A20.3,20.3,0,0,0,31.17,132.37Zm-9.35,5.92a5.48,5.48,0,0,1-6.68,4.15c-.88-.19-.73-.75-.73-1.31,0-1.75,0-3.51,0-5.26l0-5.27c0-.8.24-1.09,1.07-1.18,4.14-.43,6.47,1.55,6.63,5.74A11.78,11.78,0,0,1,21.82,138.29Z"/><path class="cls-1" d="M31.09,75.66C30,69.6,26.78,66.42,20.73,65.36c-4.37-.76-8.73-.29-13.1.29-1.79.24-2.08,1-2.06,2.58.09,6.26,0,12.52,0,18.79,0,6.49,0,13,0,19.49,0,1.34.36,1.69,1.66,1.61a40.54,40.54,0,0,1,5.62,0c1.4.1,1.62-.44,1.58-1.68-.08-2.92,0-5.85,0-8.78,0-3.47,0-3.47,3.47-3.51,5.92-.08,10.46-3,12.35-8.13A19.61,19.61,0,0,0,31.09,75.66ZM21.9,81.92a5.35,5.35,0,0,1-6.65,4.13c-.66-.14-.84-.36-.82-1,.06-1.81,0-3.62,0-5.44l.14-5.43c0-.6.13-.92.81-1.07,3.55-.76,6.39,1.23,6.72,4.82A12,12,0,0,1,21.9,81.92Z"/><path class="cls-1" d="M155.1,158.9c-1.79-3.33-2.82-7.05-5.27-10-.5-.61,0-.67.31-.88,3.78-2.82,4.73-6.88,4.55-11.22-.25-5.74-3.21-9.07-8.73-10a35.67,35.67,0,0,0-12.4.52c-.82.16-.88.56-.88,1.2q0,17.4,0,34.79c0,1,.37,1.19,1.24,1.17,1.75,0,3.52-.09,5.27,0,1.2.07,1.6-.25,1.58-1.52-.09-4.33,0-8.66,0-13,1.16-.19,1.65.41,2,1.3,1.74,4,3.55,8,5.27,12a1.65,1.65,0,0,0,1.82,1.19c2.52-.08,5,0,7.91,0C156.8,162.44,156,160.62,155.1,158.9Zm-13.3-15.17c-.82,0-1.14-.21-1.09-1.07v-7.54c-.06-1,.32-1.14,1.2-1.15,3.19-.05,4.46,1.28,4.45,4.8C146.34,142.06,144.72,143.78,141.8,143.73Z"/><path class="cls-1" d="M83.82,89.54c0-4.93-.48-9.76-3.07-14.19-4.1-7-16.63-7.57-21,.32a22.4,22.4,0,0,0-2.62,9.2c-.42,5.45-.55,10.9,1.57,16.09,2.22,5.41,6,7.78,12.08,7.78,5.19,0,9-2.7,11.16-7.84A28.39,28.39,0,0,0,83.82,89.54ZM74.94,96.1a11.07,11.07,0,0,1-1,3c-1.56,2.88-4.81,3.08-6.69.4a9,9,0,0,1-1.44-3.73,36.34,36.34,0,0,1,0-13.07,11.87,11.87,0,0,1,.68-2.17c.71-1.7,1.72-3.06,3.83-3.06s3.17,1.4,3.87,3.06c1.2,2.86,1.29,5.92,1.28,9A31.43,31.43,0,0,1,74.94,96.1Z"/><path class="cls-1" d="M149.5,92.45c3.89-2.6,5-6.72,5-11.29-.08-5.48-3.15-9.16-8.38-10.12-4.21-.77-8.39-.27-12.57.42-1.21.2-1.08.93-1.08,1.75q.06,12,.11,24.06c0,3.28,0,6.56,0,9.84,0,1.06.16,1.6,1.42,1.51a44.12,44.12,0,0,1,5.27,0c1.15.07,1.34-.38,1.33-1.4-.05-4,0-8,0-12,0-.39-.33-1,.41-1.13a1.15,1.15,0,0,1,1.3.68c.14.32.28.64.43,1q2.55,5.77,5.12,11.53c.21.5.22,1.25,1,1.26,2.83,0,5.65,0,8.72,0C154.7,103.06,152.5,97.62,149.5,92.45ZM145,86.38c-1.07,1.06-2.42,1-3.77,1-.63,0-.5-.53-.5-.9,0-1.34,0-2.68,0-4,0-.76-.11-1.83-.11-2.58,0-1.26,0-2,.7-2.11a3.8,3.8,0,0,1,3.91.86C146.82,80.34,146.7,84.71,145,86.38Z"/><path class="cls-1" d="M83.82,145.72c0-4.23-.32-8.41-2.16-12.33-2.43-5.19-6.64-7.34-12.2-7.11-5.1.21-8.51,2.88-10.53,7.46a22.84,22.84,0,0,0-1.77,7.48c-.41,5.45-.55,10.9,1.57,16.09,2.26,5.52,6.05,7.83,12.43,7.76,5-.06,8.82-2.9,10.87-8A29.15,29.15,0,0,0,83.82,145.72Zm-9.58,8.94a4,4,0,0,1-3.51,3,3.5,3.5,0,0,1-3.86-2.43,27.19,27.19,0,0,1-.2-18.82,3.68,3.68,0,0,1,3.75-2.65c1.81,0,2.83,1.24,3.55,2.72,1.31,2.7,1.4,5.63,1.51,8.7A22.39,22.39,0,0,1,74.24,154.66Z"/><path class="cls-1" d="M57.64,163.24c-2-4-3.92-8.09-5.86-12.15a5,5,0,0,0-1.94-2.53c4.51-3.17,5.61-7.52,5.19-12.36-.49-5.68-3.79-8.91-9.41-9.52a43.83,43.83,0,0,0-10.85.48c-1.22.18-1.59.64-1.58,1.9.11,8.67.12,17.33.16,26,0,2.64.07,5.28,0,7.91,0,1.27.38,1.6,1.58,1.53a33.19,33.19,0,0,1,4.57,0c1.33.09,1.82-.25,1.78-1.7-.12-3.92,0-7.85,0-11.77,0-.36-.1-.92.27-1.06a1.2,1.2,0,0,1,1.38.51,5.2,5.2,0,0,1,.43,1c1.75,3.95,3.52,7.89,5.22,11.86a1.67,1.67,0,0,0,1.83,1.2c2.16-.08,4.33-.07,6.5,0C58,164.51,58.15,164.27,57.64,163.24ZM45.85,142.33a4.64,4.64,0,0,1-4.13,1.37c-.65-.21-.5-.7-.51-1.14,0-1.28,0-2.56,0-3.85,0-.75.08-1.52,0-2.27-.12-1.45.14-2.21.56-2.42a3.6,3.6,0,0,1,4.25,1.3A7.33,7.33,0,0,1,45.85,142.33Z"/><path class="cls-1" d="M50.21,91.93c3.49-2.18,4.62-5.84,4.93-9.88.46-6-2.63-10.35-8.24-11.46-4.25-.85-8.49-.32-12.72.39-1.19.2-1,1-1,1.68q0,11.32.12,22.65c0,3.75.06,7.49,0,11.24,0,1.28.37,1.59,1.57,1.51,3.44,0,4.15,0,4.92,0,1.21.08,1.44-.38,1.42-1.48-.06-4,0-8,0-11.94,0-.36-.22-.91.36-1a1.11,1.11,0,0,1,1.24.45,12.26,12.26,0,0,1,.69,1.41c1.68,3.79,3.34,7.59,5,11.38.22.48.24,1.18,1.07,1.17,2.78,0,5.55,0,8.58,0C55.42,102.54,53.16,97.13,50.21,91.93Zm-4.56-5.7c-1.07,1.19-2.48,1.2-3.9,1.1-.71,0-.53-.66-.54-1.09,0-1.29,0-2.58,0-3.87,0-.76,0-1.53,0-2.27.15-2,.15-2.29.65-2.39,1.4-.3,2.95-.31,4,1.07C47.26,80.56,47.13,84.58,45.65,86.23Z"/><path class="cls-1" d="M108.53,135.44c-1-4.8-3.89-7.74-8.78-8.57a36.42,36.42,0,0,0-12.23.32c-1.22.21-1.43.73-1.42,1.84.05,5.62,0,11.24,0,16.86s0,11.48,0,17.22c0,1.11.23,1.57,1.44,1.5a43.38,43.38,0,0,1,5.1,0c1.15.07,1.52-.28,1.49-1.45-.07-2.75,0-5.5,0-8.26,0-2.51,0-2.51,2.57-2.56,5.64-.11,9.6-2.71,11.29-7.54A17.39,17.39,0,0,0,108.53,135.44ZM95.3,145c-.88,0-1.25-.21-1.21-1.16.07-1.51,0-3,0-4.55s0-2.92,0-4.38c0-.83.34-1.08,1.14-1.14,3.43-.26,5.29,1.39,5.37,4.87C100.72,143,99,145,95.3,145Z"/><path class="cls-1" d="M110.63,89.23c0-5.62,0-11.24,0-16.86,0-1.25.22-1.72,1.62-1.7,5.5.09,11,.07,16.52,0,1.14,0,1.53.29,1.45,1.45a33,33,0,0,0,0,4.56c.09,1.23-.41,1.45-1.5,1.42-2.92-.06-5.86,0-8.78,0-1,0-1.37.23-1.32,1.27.08,1.57.08,3.16,0,4.74,0,1,.35,1.3,1.32,1.28,2.51,0,5,0,7.55,0,1.18,0,1.7.23,1.61,1.53a44.86,44.86,0,0,0,0,4.92c.05,1-.32,1.18-1.21,1.16-2.64-.05-5.27,0-7.91,0-1.1,0-1.42.31-1.36,1.38a44.86,44.86,0,0,1,0,4.92c-.06,1.11.24,1.52,1.44,1.49,3-.09,6,0,9-.06,1.07,0,1.45.26,1.39,1.36-.09,1.7,0,3.4,0,5.1,0,.74-.24,1-1,1-5.86,0-11.72,0-17.58,0-1.51,0-1.12-1.07-1.12-1.83C110.61,100.59,110.63,94.91,110.63,89.23Z"/><path class="cls-1" d="M193.15,89.38c0-5.74,0-11.49,0-17.23,0-1.11.24-1.48,1.43-1.47,5.57.06,11.14,0,16.71,0,1,0,1.52.15,1.44,1.32a41.64,41.64,0,0,0,0,4.74c.06,1.12-.36,1.39-1.42,1.36-2.81-.06-5.63.07-8.44-.06-1.46-.06-1.8.46-1.69,1.77a19.78,19.78,0,0,1,0,3.69c-.14,1.42.25,2,1.78,1.87,2.46-.14,4.93,0,7.39,0,1,0,1.37.25,1.32,1.28-.07,1.7-.08,3.4,0,5.09.05,1.08-.41,1.25-1.34,1.23-2.64-.05-5.28,0-7.92,0-.92,0-1.21.25-1.18,1.18.07,1.81.08,3.63,0,5.45,0,1,.32,1.16,1.21,1.15,3,0,6.1,0,9.14,0,1.1,0,1.43.28,1.37,1.37-.1,1.69-.06,3.4,0,5.09,0,.75-.21,1-1,1-5.92,0-11.84,0-17.76,0-1.13,0-1-.6-1-1.33Z"/><path class="cls-1" d="M110.64,145.65c0-5.74,0-11.48,0-17.21,0-1.17.32-1.46,1.47-1.45,5.57.06,11.14.07,16.7,0,1.21,0,1.45.37,1.4,1.47-.15,3.25-.15,5.77-.9,5.77-1.31,0-3.16.21-5.09.23-1.52,0-3,0-4.57,0-.76,0-1,.26-1,1,0,1.75.06,3.51,0,5.26,0,.89.32,1.08,1.12,1.07,2.7,0,5.4,0,8.09,0,1,0,1.31.3,1.27,1.29-.08,1.63-.08,3.28,0,4.91,0,1-.3,1.31-1.29,1.28-2.64-.06-5.28,0-7.91,0-1,0-1.33.31-1.28,1.3.07,1.7.08,3.4,0,5.1-.06,1.07.27,1.41,1.36,1.38,3-.07,6,0,9,0,1.22,0,1.5.4,1.45,1.5-.08,1.63-.05,3.28,0,4.91,0,.77-.26,1-1,1-5.86,0-11.72,0-17.58,0-1.39,0-1.11-.92-1.11-1.67C110.63,157,110.64,151.33,110.64,145.65Z"/><path class="cls-1" d="M108.87,82.09c-.29-6.73-3.61-10.76-9.47-11.62a39.19,39.19,0,0,0-11.89.39c-1.17.19-1.43.72-1.41,1.85.06,5.57,0,11.13,0,16.69,0,5.74,0,11.48,0,17.22,0,1.08.19,1.58,1.41,1.5a45.66,45.66,0,0,1,5.1,0c1,.06,1.42-.22,1.39-1.34-.08-3.1,0-6.21-.05-9.31,0-1.24.35-1.72,1.58-1.56a7.27,7.27,0,0,0,1.4,0c5.37-.16,9.32-2.76,11-7.26A16.66,16.66,0,0,0,108.87,82.09Zm-8.58,3.46a5,5,0,0,1-5.49,3.09c-.73-.18-.7-.66-.7-1.19,0-1.52,0-3,0-4.55,0-1.29-.07-1.81,0-3.85,0-1.51.57-1.76,1.78-1.75,2.93,0,4.57,1.5,4.79,4.44A9.47,9.47,0,0,1,100.29,85.55Z"/><path class="cls-1" d="M226.11,70a19.55,19.55,0,0,1,8.18,1.7c.81.39,1,.8.69,1.62-.64,1.69-1.22,3.4-1.8,5.12-.25.75-.49,1-1.31.49a10.63,10.63,0,0,0-6.22-1.48c-1.16,0-2.28.3-2.78,1.47a2.89,2.89,0,0,0,.87,3.34A31.31,31.31,0,0,0,229,86.12c4.51,2.95,7.24,6.83,6.85,12.53-.31,4.65-2.94,8.31-7.47,9.5a20.41,20.41,0,0,1-13.4-1.13c-.92-.39-1.24-.82-.79-1.85a41,41,0,0,0,1.78-4.94c.32-1.08.75-1,1.6-.58a11.62,11.62,0,0,0,7.43,1.5c1.2-.2,2.27-.57,2.72-1.89a3.51,3.51,0,0,0-.82-3.73,24.39,24.39,0,0,0-5.32-4c-3.11-2-5.68-4.45-6.51-8.16C213.49,76.48,216.47,69.77,226.11,70Z"/><path class="cls-1" d="M186.34,140.9c1.54-4.32,3-8.31,4.38-12.34A1.89,1.89,0,0,1,193,127c2.22.11,4.45,0,6.67,0,.34.54-.08.92-.24,1.29q-4.49,10.47-9,20.91a6.52,6.52,0,0,0-.55,2.72c0,3.69,0,7.38,0,11.07,0,1.16-.31,1.54-1.48,1.48a40.38,40.38,0,0,0-4.92,0c-1.2.07-1.61-.25-1.58-1.52.09-3.69,0-7.39,0-11.08a6.44,6.44,0,0,0-.56-2.7c-3.13-7.29-6.23-14.59-9.47-22.17,3.1,0,6,0,8.87,0,.85,0,.78.79,1,1.28C183.23,132.38,184.72,136.48,186.34,140.9Z"/><path class="cls-1" d="M163.24,92.94c0-4.45-.05-8.9,0-13.35,0-1.26-.35-1.59-1.56-1.53-1.93.11-3.87,0-5.8,0-.94,0-1.25-.31-1.18-1.21.15-2-.24-4.06.22-6.07,1.87,0,3.73-.11,5.6-.12,5.86,0,11.72,0,17.58,0,1.36,0,1.7.4,1.62,1.69a38.57,38.57,0,0,0,.05,4.56c0,.91-.25,1.22-1.19,1.19-1.93-.06-3.87.06-5.8,0-1.22-.06-1.57.29-1.56,1.54.05,8.9,0,17.8.06,26.7,0,1.31-.23,1.9-1.7,1.76a30,30,0,0,0-4.74,0c-1.27.09-1.7-.23-1.66-1.6C163.31,102,163.24,97.45,163.24,92.94Z"/><path class="cls-1" d="M158.67,145.63c0-5.68.05-11.36,0-17,0-1.36.37-1.7,1.65-1.6a24.91,24.91,0,0,0,4.57,0c1.56-.16,1.78.48,1.77,1.86-.06,8.79,0,17.57-.07,26.36,0,1.5.42,1.84,1.85,1.79,3.16-.11,6.33,0,9.49-.06,1.1,0,1.46.31,1.38,1.38-.1,1.4-.07,2.82-.09,4.21,0,1.93-.47,2-2,2-5.69-.09-11.37-.07-17.06,0-1.16,0-1.46-.32-1.45-1.47C158.7,157.22,158.67,151.43,158.67,145.63Z"/><path class="cls-1" d="M181.54,89.27c0-5.68,0-11.37,0-17,0-1.23.3-1.62,1.54-1.54,1.76.11,3.52.06,5.28,0,.83,0,1.27.11,1.26,1.12q0,17.58,0,35.15c0,.87-.31,1.1-1.12,1.08-1.88,0-3.76-.1-5.63,0-1.15.07-1.33-.36-1.32-1.39C181.56,100.87,181.54,95.07,181.54,89.27Z"/><path class="cls-1" d="M160.79,117.52h84.07c.52,0,1.06-.08,1,.77s-.63.66-1.12.7c-.23,0-.46,0-.7,0H76.12c-.54,0-.67-.29-.67-.78s.26-.71.76-.69.82,0,1.23,0Z"/><path class="cls-1" d="M42.7,114.41c-.6-2.61-1.89-3.88-4.49-4.19-1.22-.14-2.46,0-3.69-.06-.85,0-1.09.39-1.07,1.19,0,1.93,0,3.87,0,5.8l-.06,3.69c0,3.07,0,3.07,3.14,3,3.61-.06,5.69-1.65,6.24-4.91A11.52,11.52,0,0,0,42.7,114.41Zm-3.85,6a1.91,1.91,0,0,1-1.93.55c-.33,0-.33-.79-.33-1.53s0-1.63,0-2.44a25.22,25.22,0,0,1,0-2.61c0-.49,0-1.27.45-1.42a2,2,0,0,1,1.93.53C40.14,114.74,40.1,119.19,38.85,120.37Z"/><path class="cls-1" d="M61.91,116.46c0-1.39.06-2.79,0-4.18-.07-1.1.55-1.07,1.3-1s1.52-.22,1.5,1.06c-.07,3.33,0,6.67,0,10,0,.51.34,1.3-.63,1.34-.72,0-1.49.25-2-.65a24.66,24.66,0,0,0-3-4.33c0,1.25-.09,2.52,0,3.76.11,1.41-.82,1.08-1.59,1.13s-1.43,0-1.4-1.16c.08-3.28,0-6.56,0-9.84,0-.47.12-1.26.56-1.35.74-.14,1.6-.35,2.15.67.85,1.59,1.85,3.09,2.78,4.63Z"/><path class="cls-1" d="M54.19,117.1a8,8,0,0,0-.69-3.48,4.15,4.15,0,0,0-4.23-2.48,3.83,3.83,0,0,0-3.8,2.55,10.25,10.25,0,0,0,0,7.51,4,4,0,0,0,4.12,2.65,4,4,0,0,0,4-2.57A9.06,9.06,0,0,0,54.19,117.1Zm-3.46,3.08a1.23,1.23,0,0,1-2.35.16,7.09,7.09,0,0,1,0-5.91c.51-1.09,1.41-.87,2.07,0a3.75,3.75,0,0,1,.56,2.49v0A6.71,6.71,0,0,1,50.73,120.18Z"/><path class="cls-1" d="M66.89,117.36c0-1.64,0-3.27,0-4.91,0-.89.22-1.27,1.17-1.22a32.86,32.86,0,0,0,4.21,0c1.18-.09,1.48.32,1.49,1.46s-.52,1.37-1.48,1.27c-.58,0-1.17,0-1.76,0-.88,0-.64.65-.66,1.12s-.15,1.11.72,1.05c.46,0,.93,0,1.4,0,.81,0,1.56-.2,1.56,1.16S73,118.75,72,118.65a13.25,13.25,0,0,0-1.41,0c-1,0-.69.74-.72,1.27s-.06,1.1.75,1.07c.65,0,1.3,0,1.93,0,1-.09,1.33.17,1.33,1.23s-.23,1.46-1.35,1.38a37.82,37.82,0,0,0-4.39,0c-1,.06-1.28-.35-1.24-1.31C66.94,120.64,66.89,119,66.89,117.36Z"/><path class="cls-1" d="M18.07,118.43H6.48c-.61,0-1.36.2-1.3-.87s.78-.68,1.28-.69q11.67,0,23.35,0c.54,0,1.21-.22,1.22.76s-.64.8-1.2.8Z"/><path class="cls-1" d="M193.82,158.07h1.41v5.11h2.62v1.31h-4Z"/><path class="cls-1" d="M198.68,158.07h1.42v5.11h2.62v1.31h-4Z"/><path class="cls-1" d="M207.7,159.74a1.35,1.35,0,0,0-.52-.39,1.68,1.68,0,0,0-.7-.14,1.7,1.7,0,0,0-.74.16,1.76,1.76,0,0,0-.59.43,2.2,2.2,0,0,0-.39.65,2.49,2.49,0,0,0-.14.83,2.45,2.45,0,0,0,.14.83,2.2,2.2,0,0,0,.39.65,1.75,1.75,0,0,0,1.29.59,1.62,1.62,0,0,0,.77-.18,1.68,1.68,0,0,0,.55-.51l1.18.88a2.46,2.46,0,0,1-1,.84,3.25,3.25,0,0,1-1.29.27,4.14,4.14,0,0,1-1.39-.23,3.08,3.08,0,0,1-1.82-1.74,3.9,3.9,0,0,1,0-2.8,3.31,3.31,0,0,1,.72-1.06,3.18,3.18,0,0,1,1.1-.68,3.9,3.9,0,0,1,1.39-.23,2.71,2.71,0,0,1,.56.05,3.19,3.19,0,0,1,.59.15,2.81,2.81,0,0,1,.54.29,2.27,2.27,0,0,1,.48.45Z"/></g></g></svg>