<svg xmlns="http://www.w3.org/2000/svg" viewBox="0 0 182.89 111.74"><defs><style>.cls-1{fill:#060d73;}</style></defs><g id="Layer_2" data-name="Layer 2"><g id="Layer_1-2" data-name="Layer 1"><path class="cls-1" d="M142.37,65.75c-2.47-1.89-5.62-4.23-8.59-6.42-4.11-2.95-9.75-6.87-17.13-11.71-.9-.6-1.85-1.2-2.82-1.8l-1.56-1C103,39.31,91.71,33.69,88.85,32.29L82,34.39c-1.81,2.65-9.58,13-21.27,13.85a17.53,17.53,0,0,1-1.87.1c-2.64,0-4.46-.69-5.57-2.12C52,44.53,51.88,42,53,38.36a1.88,1.88,0,0,1,.12-.3c2.16-4.2,6.59-10.27,10.44-15.41l-2.31-.34c-4.64-.66-9.44-1.34-12-2.73-1.1-.61-2.84-1.62-4.73-2.75L21.09,57l2,2.12c.08.1,2.37,2.84,5.59,6.73l.06-.08a8.5,8.5,0,0,1,6.82-3.23,10.88,10.88,0,0,1,10.16,7.64l2.21-2.9A8.44,8.44,0,0,1,54.71,64a10.61,10.61,0,0,1,6.54,2.35,10.15,10.15,0,0,1,3.8,10.12l.43,0A10.57,10.57,0,0,1,72,78.81a10.16,10.16,0,0,1,3.83,10c.26,0,.52,0,.79,0a10.57,10.57,0,0,1,6.53,2.35c4.26,3.38,5.33,9.27,2.38,13.14l-1.52,2a81.78,81.78,0,0,0,10.88,3l.16,0c1.94.47,7.71,1.33,11-.38a16.08,16.08,0,0,0,5.29-4.82L93.53,95.69a1.79,1.79,0,0,1-.87-2.42,1.9,1.9,0,0,1,2.51-.85l18.91,8.81a2.06,2.06,0,0,1,.43,0c1.29.2,5.09.48,7-.72,2.32-1.47,2.81-4.91,2.9-6.58l-23-12.83a1.79,1.79,0,0,1-.68-2.49,1.92,1.92,0,0,1,2.57-.66l23.53,13.16c1.65.1,5.47,0,7.18-1.28,3-2.38,2.65-6.15,2.42-7.39L109.25,66.66a1.78,1.78,0,0,1-.65-2.49,1.93,1.93,0,0,1,2.59-.62l28.65,16.6c2,.5,6.53,1.12,8.72-2.75,1.63-2.9,1-5.56-1.79-8.16Z"/><path class="cls-1" d="M60.59,77.35c1.79-2.34,1-6-1.74-8.18a6.66,6.66,0,0,0-4.14-1.52,4.66,4.66,0,0,0-3.79,1.75L38.84,85.3c-1.78,2.33-1,6,1.74,8.19A6.78,6.78,0,0,0,44.72,95a4.65,4.65,0,0,0,3.79-1.77l0,0Z"/><path class="cls-1" d="M69.62,81.61a6.76,6.76,0,0,0-4.14-1.52,4.8,4.8,0,0,0-3.15,1.11c-.23.2-10,13-10,13a3.21,3.21,0,0,0-.19.31,5.19,5.19,0,0,0-.42.81,6.35,6.35,0,0,0,2.34,7.06,6.76,6.76,0,0,0,4.15,1.52A4.64,4.64,0,0,0,62,102.18L71.36,89.8C73.14,87.46,72.36,83.79,69.62,81.61Z"/><path class="cls-1" d="M80.77,93.92a6.69,6.69,0,0,0-4.14-1.53,4.65,4.65,0,0,0-3.79,1.77s-6.45,8.5-6.59,8.83c-1,2.29-.1,5.33,2.29,7.23a6.74,6.74,0,0,0,4.15,1.52A4.64,4.64,0,0,0,76.47,110l6-7.89C84.29,99.76,83.51,96.09,80.77,93.92Z"/><path class="cls-1" d="M41.56,75.59c1.53-2.31.72-5.85-1.89-7.92a6.76,6.76,0,0,0-4.14-1.52,4.65,4.65,0,0,0-3.79,1.76l-3.86,5c-1.77,2.33-1,6,1.74,8.18a6.76,6.76,0,0,0,4.15,1.52,4.77,4.77,0,0,0,3.08-1C37.1,81.39,41.51,75.67,41.56,75.59Z"/><path class="cls-1" d="M128.81,18a67.73,67.73,0,0,1-8.69-1.61c-5.21-1.18-11.69-2.65-18.5-2.65h-.47c-15.35.14-27.85,2.08-29.72,4.62l-1.49,2L68.68,22l-1.06,1.41c-4,5.24-8.81,11.79-11.07,16.12-.89,3-.53,4.13-.24,4.51.43.55,1.63.67,2.56.67a14.17,14.17,0,0,0,1.53-.09C71.63,43.78,79.1,32,79.17,31.92a1.92,1.92,0,0,1,1-.79L83.93,30l4.51-1.39a2.12,2.12,0,0,1,.57-.08,1.94,1.94,0,0,1,.84.19c.15.07,13.43,6.49,24.17,12.93L116.27,43c.86.54,1.7,1.07,2.5,1.6,7.23,4.76,12.77,8.59,16.86,11.52,6,4.3,8.87,6.61,9.07,6.76h0L148.56,66l.05,0A24,24,0,0,0,155,61.81c1.17-1,2-1.86,2.81-2.68a34.89,34.89,0,0,1,3.29-3l.09-.07-23.09-39.6A24.86,24.86,0,0,1,128.81,18Z"/><path class="cls-1" d="M44.41,9.6A1.29,1.29,0,0,0,44,7.86L30.89.15A1.06,1.06,0,0,0,30.34,0a1.14,1.14,0,0,0-1,.58L.17,50.61A1.28,1.28,0,0,0,.6,52.34l13.1,7.71a1.15,1.15,0,0,0,1.54-.43Z"/><path class="cls-1" d="M182.72,50.61,153.54.58a1.14,1.14,0,0,0-1-.58,1.08,1.08,0,0,0-.55.15L138.9,7.86a1.29,1.29,0,0,0-.42,1.74l29.18,50a1.14,1.14,0,0,0,1.54.43l13.09-7.7A1.29,1.29,0,0,0,182.72,50.61Z"/></g></g></svg>