<svg xmlns="http://www.w3.org/2000/svg" viewBox="0 0 74.15 47.3"><defs><style>.cls-1{fill:#fff;stroke:#060d73;stroke-miterlimit:10;}</style></defs><g id="Layer_2" data-name="Layer 2"><g id="Layer_1-2" data-name="Layer 1"><path class="cls-1" d="M57.45,27.74C56.46,27,55.2,26,54,25.08c-1.64-1.22-3.9-2.84-6.85-4.85L46,19.49l-.62-.4c-3.7-2.3-8.23-4.63-9.37-5.21l-2.74.87c-.72,1.1-3.83,5.38-8.51,5.74a6.34,6.34,0,0,1-.74,0,2.56,2.56,0,0,1-2.23-.88c-.53-.7-.57-1.73-.13-3.25a.5.5,0,0,1,0-.13,53.17,53.17,0,0,1,4.18-6.38L25,9.75A16.41,16.41,0,0,1,20.2,8.61c-.44-.25-1.13-.67-1.89-1.14L8.94,24.11l.78.88L12,27.78l0,0a3.35,3.35,0,0,1,2.73-1.34,4.12,4.12,0,0,1,2.61,1,4.33,4.33,0,0,1,1.45,2.19l.89-1.2A3.34,3.34,0,0,1,22.38,27,4.12,4.12,0,0,1,25,28a4.3,4.3,0,0,1,1.52,4.19h.17a4.13,4.13,0,0,1,2.61,1,4.28,4.28,0,0,1,1.54,4.14l.31,0a4.18,4.18,0,0,1,2.61,1,4.08,4.08,0,0,1,1,5.45l-.6.82a31.79,31.79,0,0,0,4.35,1.22h.06c.78.2,3.09.55,4.41-.16a6.48,6.48,0,0,0,2.11-2l-7.13-3.44a.75.75,0,1,1,.66-1.35l7.56,3.65a.49.49,0,0,1,.17,0,4.87,4.87,0,0,0,2.8-.3,3.59,3.59,0,0,0,1.16-2.73l-9.18-5.31a.75.75,0,0,1-.27-1,.74.74,0,0,1,1-.28l9.42,5.45a5,5,0,0,0,2.87-.52,3.25,3.25,0,0,0,1-3.07L44.2,28.12a.74.74,0,0,1-.26-1,.75.75,0,0,1,1-.26l11.46,6.88c.8.21,2.62.47,3.49-1.14a2.57,2.57,0,0,0-.72-3.38Z"/><path class="cls-1" d="M24.74,32.55a2.56,2.56,0,0,0-.7-3.39,2.61,2.61,0,0,0-1.66-.63,1.84,1.84,0,0,0-1.51.73L16,35.85a2.56,2.56,0,0,0,.69,3.39,2.66,2.66,0,0,0,1.66.63,1.84,1.84,0,0,0,1.51-.73h0Z"/><path class="cls-1" d="M28.34,34.32a2.6,2.6,0,0,0-1.65-.63,1.86,1.86,0,0,0-1.26.46c-.09.08-4,5.4-4,5.4l-.08.13c-.06.11-.12.22-.17.33a2.69,2.69,0,0,0,.94,2.93,2.61,2.61,0,0,0,1.66.63,1.82,1.82,0,0,0,1.51-.73L29,37.71A2.56,2.56,0,0,0,28.34,34.32Z"/><path class="cls-1" d="M32.81,39.42a2.65,2.65,0,0,0-1.66-.63,1.81,1.81,0,0,0-1.51.73S27.06,43,27,43.18a2.68,2.68,0,0,0,.91,3,2.65,2.65,0,0,0,1.66.63,1.84,1.84,0,0,0,1.52-.73L33.5,42.8A2.56,2.56,0,0,0,32.81,39.42Z"/><path class="cls-1" d="M17.12,31.82a2.62,2.62,0,0,0-.75-3.28,2.65,2.65,0,0,0-1.66-.63,1.84,1.84,0,0,0-1.52.73l-1.54,2.09a2.57,2.57,0,0,0,.7,3.39,2.66,2.66,0,0,0,1.66.63,1.87,1.87,0,0,0,1.23-.44C15.34,34.22,17.1,31.86,17.12,31.82Z"/><path class="cls-1" d="M52,8a24.19,24.19,0,0,1-3.47-.67,32.33,32.33,0,0,0-7.4-1.1H41c-6.14.06-11.14.87-11.89,1.92l-.59.83c-.17.22-.33.44-.51.69l-.42.58a59.86,59.86,0,0,0-4.43,6.68c-.36,1.26-.22,1.71-.1,1.87s.65.28,1,.28c.18,0,.39,0,.61,0,4.49-.35,7.48-5.21,7.51-5.26a.71.71,0,0,1,.41-.33l1.49-.47,1.8-.58a.91.91,0,0,1,.23,0,.68.68,0,0,1,.34.08c.06,0,5.37,2.69,9.66,5.35l.9.57L48,19c2.9,2,5.11,3.56,6.75,4.77,2.41,1.78,3.55,2.74,3.63,2.8h0l1.54,1.28h0a9.62,9.62,0,0,0,2.57-1.72c.47-.42.8-.77,1.13-1.11A14.66,14.66,0,0,1,65,23.74l0,0L55.75,7.3A9.51,9.51,0,0,1,52,8Z"/><path class="cls-1" d="M18.26,4.48a.54.54,0,0,0-.16-.72L12.86.56A.43.43,0,0,0,12.64.5a.46.46,0,0,0-.4.24L.57,21.47a.55.55,0,0,0,.17.72L6,25.39a.45.45,0,0,0,.61-.18Z"/><path class="cls-1" d="M73.58,21.47,61.91.74A.44.44,0,0,0,61.52.5a.43.43,0,0,0-.22.06l-5.24,3.2a.55.55,0,0,0-.17.72L67.56,25.21a.46.46,0,0,0,.62.18l5.23-3.2A.54.54,0,0,0,73.58,21.47Z"/></g></g></svg>