<svg xmlns="http://www.w3.org/2000/svg" viewBox="0 0 45.99 40.17"><defs><style>.cls-1{fill:#060d73;}</style></defs><g id="Layer_2" data-name="Layer 2"><g id="Layer_1-2" data-name="Layer 1"><path class="cls-1" d="M0,26.62C0,14.65,5.6,6,16,0l3.51,5.79C12,10.75,8.14,16,8.14,24.61L9.9,34.54,3.68,26.91a7.54,7.54,0,0,1,5.77-2.6c4.17,0,8,2.72,8,7.56,0,5.18-3.31,8.3-8,8.3C3.5,40.17,0,35.3,0,26.62Zm26.49,0c0-12,5.6-20.64,16-26.62L46,5.79c-7.51,5-11.36,10.2-11.36,18.82l1.76,9.93-6.23-7.63a7.56,7.56,0,0,1,5.78-2.6c4.16,0,8,2.72,8,7.56,0,5.18-3.32,8.3-8,8.3C30,40.17,26.49,35.3,26.49,26.62Z"/></g></g></svg>