<svg xmlns="http://www.w3.org/2000/svg" viewBox="0 0 183 221.71"><defs><style>.cls-1{fill:#060d73;}</style></defs><g id="Layer_2" data-name="Layer 2"><g id="Layer_1-2" data-name="Layer 1"><path class="cls-1" d="M182.58,36.51l-.12-2-3.69-.6a195.87,195.87,0,0,1-42.4-10.57A197.07,197.07,0,0,1,93.26.9L92,0l-.47.28L91,0,89.7.91A196.75,196.75,0,0,1,46.62,23.39,196.76,196.76,0,0,1,4.15,34l-3.61.59-.13,2A206.48,206.48,0,0,0,24.76,147.93c20.68,38.2,47,60.71,65.45,72.87l1.38.91L93,220.8a188.37,188.37,0,0,0,31.86-26.7,211.57,211.57,0,0,0,33.52-46.23A206.45,206.45,0,0,0,182.58,36.51Zm-28.64,109c-19.64,36.36-44.49,58.16-62.35,70.22-17.88-12.05-42.75-33.81-62.43-70.16A201.36,201.36,0,0,1,5.29,38.91,201.64,201.64,0,0,0,48.37,28.08,201.81,201.81,0,0,0,91.23,5.92l.25.15.26-.15A202.5,202.5,0,0,0,134.62,28a201.64,201.64,0,0,0,43.09,10.79A201.21,201.21,0,0,1,153.94,145.49Z"/><path class="cls-1" d="M167.16,46.33a237.12,237.12,0,0,1-34.4-9.89A236,236,0,0,1,92.9,17.18l-1.41-.85-1.41.85A237.72,237.72,0,0,1,50.23,36.49a236.61,236.61,0,0,1-34.38,9.92l-2.22.45.06,2.27A200.71,200.71,0,0,0,38,141.34C51.55,166.43,69,187.52,89.88,204l1.7,1.34L93.27,204c20.85-16.54,38.3-37.66,51.86-62.76a200.83,200.83,0,0,0,24.2-92.23l0-2.26ZM89.69,140.55,64.48,117.82l5.1-5.66,19.47,17.56,44.8-51,5.73,5Z"/></g></g></svg>